# xmcd CD database file
#
# Track frame offsets:
#	150
#	27871
#	74840
#	140864
#	192197
#	201610
#	212967
#	223866
#	259901
#	298185
#	335354
#
# Disc length: 4757 seconds
#
# Revision: 0
# Processed by: cddbd v1.5.1PL0 Copyright (c) Steve Scherf et al.
# Submitted via: CDex 1.51
#
DISCID=cc12930b
DTITLE=Santana - Prologue
DYEAR=1969
DGENRE=Jazz
TTITLE0=El Corazon Manda
TTITLE1=La Puesta Del Sol
TTITLE2=Santana Jam
TTITLE3=Latin Tropical
TTITLE4=We've Got To Get Ourselves Together
TTITLE5=Acapulco Sunrise
TTITLE6=Coconut Grove
TTITLE7=Hot Tamales
TTITLE8=Jam In E
TTITLE9=Jammin' Home
TTITLE10=Travelin' Blues
EXTD=YEAR: 1969
EXTT0=
EXTT1=
EXTT2=
EXTT3=
EXTT4=
EXTT5=
EXTT6=
EXTT7=
EXTT8=
EXTT9=
EXTT10=
PLAYORDER=
